<svg width="20" height="20" viewBox="0 0 20 20" fill="none" xmlns="http://www.w3.org/2000/svg">
<g clip-path="url(#clip0_185_4659)">
<path d="M9.99935 13.3333C11.8403 13.3333 13.3327 11.8409 13.3327 10C13.3327 8.15905 11.8403 6.66667 9.99935 6.66667C8.1584 6.66667 6.66602 8.15905 6.66602 10C6.66602 11.8409 8.1584 13.3333 9.99935 13.3333Z" fill="#ED1C24" stroke="#231F20" stroke-width="2" stroke-linecap="round" stroke-linejoin="round"/>
<path d="M13.3327 6.66667V10.8333C13.3327 11.4964 13.5961 12.1323 14.0649 12.6011C14.5338 13.0699 15.1697 13.3333 15.8327 13.3333C16.4957 13.3333 17.1316 13.0699 17.6005 12.6011C18.0693 12.1323 18.3327 11.4964 18.3327 10.8333V10C18.3326 8.11919 17.6962 6.29373 16.5271 4.82044C15.358 3.34716 13.7248 2.31269 11.8932 1.88525C10.0616 1.45781 8.1393 1.66254 6.43881 2.46614C4.73832 3.26974 3.35969 4.62496 2.52707 6.31144C1.69446 7.99791 1.45683 9.91645 1.85283 11.7551C2.24883 13.5937 3.25517 15.2444 4.70821 16.4386C6.16126 17.6328 7.97555 18.3003 9.85608 18.3326C11.7366 18.365 13.5728 17.7602 15.066 16.6167" stroke="#231F20" stroke-width="2" stroke-linecap="round" stroke-linejoin="round"/>
</g>
<defs>
<clipPath id="clip0_185_4659">
<rect width="20" height="20" fill="white"/>
</clipPath>
</defs>
</svg>
