<svg width="20" height="20" viewBox="0 0 20 20" fill="none" xmlns="http://www.w3.org/2000/svg">
<path d="M9.83398 16C13.1477 16 15.834 13.3137 15.834 10C15.834 6.68629 13.1477 4 9.83398 4C6.52028 4 3.83398 6.68629 3.83398 10C3.83398 13.3137 6.52028 16 9.83398 16Z" stroke="#231F20" stroke-width="2" stroke-linecap="round" stroke-linejoin="round"/>
<path d="M9.83398 8V10L10.834 11" stroke="#ED1C24" stroke-width="2" stroke-linecap="round" stroke-linejoin="round"/>
<path d="M13.8163 14.3773L13.5069 17.5109C13.4671 17.9189 13.2634 18.2982 12.936 18.5739C12.6087 18.8496 12.1815 19.0016 11.739 19H7.91133C7.46875 19.0016 7.04159 18.8496 6.71425 18.5739C6.38691 18.2982 6.18321 17.9189 6.14338 17.5109L5.83398 14.3773M5.84282 5.62273L6.15222 2.4891C6.19191 2.08253 6.39436 1.70437 6.71983 1.42886C7.0453 1.15336 7.47027 1.0004 7.91133 1.00001H11.7566C12.1992 0.998351 12.6264 1.15039 12.9537 1.4261C13.2811 1.70181 13.4848 2.08112 13.5246 2.4891L13.834 5.62273" stroke="#231F20" stroke-width="2" stroke-linecap="round" stroke-linejoin="round"/>
</svg>
