<svg width="188" height="32" viewBox="0 0 188 32" fill="none" xmlns="http://www.w3.org/2000/svg">
<mask id="mask0_185_4827" style="mask-type:luminance" maskUnits="userSpaceOnUse" x="0" y="0" width="188" height="32">
<path d="M188 0H0V32H188V0Z" fill="white"/>
</mask>
<g mask="url(#mask0_185_4827)">
<mask id="mask1_185_4827" style="mask-type:luminance" maskUnits="userSpaceOnUse" x="-6" y="-4" width="199" height="42">
<path d="M-5.38672 -3.7334H192.848V37.0367H-5.38672V-3.7334Z" fill="white"/>
</mask>
<g mask="url(#mask1_185_4827)">
<path d="M37.2441 30.4187V2.38137H40.6733V27.4069H53.837V30.4187H37.2441ZM59.1466 30.4187V2.38137H68.7152C70.9368 2.38137 72.7527 2.77838 74.1635 3.57241C75.5829 4.35731 76.6339 5.42057 77.3158 6.7622C77.9978 8.10385 78.3393 9.6006 78.3393 11.2525C78.3393 12.9045 77.9978 14.4058 77.3158 15.7566C76.643 17.1074 75.6012 18.1843 74.1909 18.9875C72.7807 19.7815 70.9739 20.1785 68.7707 20.1785H61.9122V17.1667H68.6597C70.181 17.1667 71.4022 16.9066 72.3244 16.3864C73.2461 15.8661 73.9146 15.1634 74.3294 14.2781C74.7533 13.3836 74.965 12.3752 74.965 11.2525C74.965 10.13 74.7533 9.12604 74.3294 8.24076C73.9146 7.35542 73.2412 6.66181 72.3104 6.15984C71.3796 5.64874 70.1444 5.39319 68.6048 5.39319H62.5759V30.4187H59.1466ZM87.2922 2.38137V30.4187H83.863V2.38137H87.2922ZM109.655 9.39068C109.489 8.00342 108.816 6.92648 107.636 6.15984C106.456 5.39319 105.009 5.00987 103.294 5.00987C102.04 5.00987 100.943 5.21066 100.003 5.61223C99.0721 6.01381 98.3438 6.56598 97.8186 7.26873C97.302 7.97148 97.044 8.77009 97.044 9.66449C97.044 10.4129 97.2239 11.0563 97.5832 11.5948C97.9522 12.1242 98.4225 12.5668 98.994 12.9227C99.5655 13.2696 100.165 13.5571 100.792 13.7852C101.418 14.0043 101.994 14.1822 102.52 14.3192L105.396 15.0858C106.133 15.2774 106.954 15.5421 107.857 15.8798C108.77 16.2175 109.641 16.6784 110.471 17.2625C111.309 17.8375 112.001 18.5768 112.545 19.4803C113.089 20.3839 113.361 21.4928 113.361 22.807C113.361 24.322 112.959 25.6911 112.157 26.914C111.365 28.137 110.203 29.109 108.673 29.83C107.152 30.5511 105.304 30.9115 103.128 30.9115C101.1 30.9115 99.3442 30.5875 97.8601 29.9395C96.3852 29.2915 95.2238 28.388 94.3753 27.2289C93.5366 26.0698 93.062 24.7236 92.9511 23.1903H96.4913C96.5834 24.249 96.9427 25.1252 97.5697 25.8188C98.2054 26.5033 99.0075 27.0144 99.9755 27.3521C100.953 27.6807 102.004 27.845 103.128 27.845C104.437 27.845 105.612 27.6351 106.654 27.2152C107.696 26.7863 108.521 26.193 109.129 25.4355C109.737 24.6689 110.042 23.7744 110.042 22.7522C110.042 21.8213 109.779 21.0638 109.254 20.4797C108.729 19.8956 108.037 19.421 107.18 19.0559C106.322 18.6908 105.396 18.3714 104.4 18.0976L100.916 17.1119C98.7037 16.4822 96.9519 15.5832 95.6612 14.415C94.371 13.2467 93.7257 11.718 93.7257 9.82881C93.7257 8.259 94.1539 6.88998 95.0115 5.72176C95.8783 4.54441 97.0397 3.63173 98.4963 2.98374C99.9615 2.32661 101.598 1.99805 103.405 1.99805C105.23 1.99805 106.852 2.32205 108.272 2.97005C109.692 3.60892 110.816 4.48508 111.646 5.59854C112.485 6.712 112.927 7.97606 112.973 9.39068H109.655ZM117.45 5.39319V2.38137H138.689V5.39319H129.784V30.4187H126.355V5.39319H117.45ZM141.834 30.4187H138.239L148.638 2.38137H152.178L162.576 30.4187H158.981L150.518 6.81696H150.297L141.834 30.4187ZM143.162 19.4666H157.653V22.4785H143.162V19.4666ZM166.986 30.4187V2.38137H176.555C178.767 2.38137 180.583 2.75557 182.003 3.50396C183.423 4.24322 184.474 5.26086 185.156 6.55685C185.838 7.85286 186.179 9.32684 186.179 10.9787C186.179 12.6307 185.838 14.0955 185.156 15.3733C184.474 16.651 183.428 17.6549 182.017 18.3851C180.606 19.1061 178.805 19.4666 176.611 19.4666H168.867V16.4H176.5C178.012 16.4 179.229 16.181 180.15 15.7429C181.081 15.3048 181.754 14.6842 182.169 13.8811C182.593 13.0688 182.805 12.1013 182.805 10.9787C182.805 9.85617 182.593 8.87505 182.169 8.03537C181.745 7.19572 181.068 6.54773 180.136 6.09139C179.205 5.62592 177.974 5.39319 176.445 5.39319H170.416V30.4187H166.986ZM180.316 17.8238L187.285 30.4187H183.303L176.445 17.8238H180.316Z" fill="#231F20"/>
<path d="M0.136719 31.359L3.00825 25.8912H14.9842L17.172 22.3442L22.0259 31.359H0.136719Z" fill="#ED1C24"/>
<path d="M27.3993 31.4671L16.6623 13.2926L11.6123 21.9383L5.12305 21.902L16.6078 2.01221L33.7888 31.4309L27.3993 31.4671Z" fill="#231F20"/>
</g>
</g>
</svg>
