<svg width="483" height="188" viewBox="0 0 483 188" fill="none" xmlns="http://www.w3.org/2000/svg">
<path d="M10.49 146.784V129.12L100.346 4.70399H128.25V126.56H153.85V146.784H128.25V188H105.21V146.784H10.49ZM106.234 29.024L37.37 126.56H106.234V29.024ZM177.122 93.536C177.122 64.1813 181.901 41.312 191.458 24.928C201.015 8.37333 217.741 0.095993 241.634 0.095993C265.357 0.095993 281.997 8.37333 291.554 24.928C301.111 41.312 305.89 64.1813 305.89 93.536C305.89 123.403 301.111 146.613 291.554 163.168C281.997 179.723 265.357 188 241.634 188C217.741 188 201.015 179.723 191.458 163.168C181.901 146.613 177.122 123.403 177.122 93.536ZM282.85 93.536C282.85 78.688 281.826 66.144 279.778 55.904C277.901 45.4933 273.89 37.1307 267.746 30.816C261.773 24.5013 253.069 21.344 241.634 21.344C230.029 21.344 221.154 24.5013 215.01 30.816C209.037 37.1307 205.026 45.4933 202.978 55.904C201.101 66.144 200.162 78.688 200.162 93.536C200.162 108.896 201.101 121.781 202.978 132.192C205.026 142.603 209.037 150.965 215.01 157.28C221.154 163.595 230.029 166.752 241.634 166.752C253.069 166.752 261.773 163.595 267.746 157.28C273.89 150.965 277.901 142.603 279.778 132.192C281.826 121.781 282.85 108.896 282.85 93.536ZM332.24 146.784V129.12L422.096 4.70399H450V126.56H475.6V146.784H450V188H426.96V146.784H332.24ZM427.984 29.024L359.12 126.56H427.984V29.024Z" fill="black"/>
<path d="M164 146.501L177.311 121.255H232.826L242.968 104.878L265.468 146.501H164Z" fill="#ED1C24"/>
<path d="M290.38 147L240.608 63.0839L217.198 103.003L187.117 102.836L240.355 11L319.998 146.833L290.38 147Z" fill="#231F20"/>
</svg>
