<svg width="268" height="46" viewBox="0 0 268 46" fill="none" xmlns="http://www.w3.org/2000/svg">
<g clip-path="url(#clip0_185_4625)">
<mask id="mask0_185_4625" style="mask-type:luminance" maskUnits="userSpaceOnUse" x="0" y="0" width="268" height="46">
<path d="M268 0H0V46H268V0Z" fill="white"/>
</mask>
<g mask="url(#mask0_185_4625)">
<mask id="mask1_185_4625" style="mask-type:luminance" maskUnits="userSpaceOnUse" x="-8" y="-6" width="283" height="60">
<path d="M-7.67969 -5.36667H274.911V53.2404H-7.67969V-5.36667Z" fill="white"/>
</mask>
<g mask="url(#mask1_185_4625)">
<path d="M53.0918 43.7271V3.42343H57.9802V39.3976H76.7454V43.7271H53.0918ZM84.3145 43.7271V3.42343H97.9548C101.122 3.42343 103.71 3.99414 105.721 5.13555C107.745 6.26385 109.243 7.79229 110.215 9.72088C111.187 11.6495 111.674 13.8011 111.674 16.1757C111.674 18.5504 111.187 20.7086 110.215 22.6503C109.256 24.5921 107.771 26.1402 105.761 27.2947C103.75 28.4361 101.175 29.0068 98.0339 29.0068H88.2569V24.6773H97.8757C100.044 24.6773 101.785 24.3034 103.1 23.5556C104.414 22.8078 105.367 21.7976 105.958 20.525C106.562 19.2392 106.864 17.7895 106.864 16.1757C106.864 14.5621 106.562 13.1189 105.958 11.8463C105.367 10.5736 104.407 9.57656 103.08 8.85498C101.753 8.12028 99.9921 7.75293 97.7974 7.75293H89.203V43.7271H84.3145ZM124.437 3.42343V43.7271H119.548V3.42343H124.437ZM156.315 13.4993C156.079 11.5051 155.119 9.95703 153.438 8.85498C151.755 7.75293 149.693 7.2019 147.248 7.2019C145.461 7.2019 143.897 7.49054 142.556 8.0678C141.23 8.64507 140.191 9.43881 139.443 10.449C138.706 11.4592 138.338 12.6072 138.338 13.8929C138.338 14.9688 138.595 15.8937 139.107 16.6677C139.633 17.4287 140.303 18.065 141.118 18.5766C141.933 19.0752 142.787 19.4885 143.681 19.8165C144.574 20.1314 145.395 20.3872 146.144 20.584L150.244 21.686C151.295 21.9615 152.465 22.342 153.753 22.8274C155.054 23.3129 156.296 23.9754 157.478 24.8151C158.674 25.6416 159.66 26.7043 160.435 28.0032C161.211 29.302 161.598 30.8961 161.598 32.7853C161.598 34.9631 161.026 36.9311 159.883 38.6891C158.753 40.4472 157.098 41.8444 154.916 42.8809C152.747 43.9173 150.113 44.4355 147.012 44.4355C144.121 44.4355 141.617 43.9698 139.502 43.0383C137.399 42.1068 135.744 40.808 134.534 39.1418C133.339 37.4756 132.662 35.5404 132.504 33.3363H137.55C137.682 34.8582 138.194 36.1177 139.088 37.1148C139.994 38.0987 141.137 38.8334 142.517 39.3189C143.91 39.7912 145.409 40.0274 147.012 40.0274C148.878 40.0274 150.553 39.7256 152.038 39.1221C153.523 38.5055 154.699 37.6527 155.566 36.5637C156.433 35.4617 156.867 34.1759 156.867 32.7065C156.867 31.3683 156.492 30.2794 155.744 29.4398C154.995 28.6001 154.009 27.9179 152.787 27.3931C151.565 26.8683 150.244 26.4091 148.825 26.0155L143.858 24.5986C140.704 23.6934 138.207 22.4011 136.367 20.7218C134.528 19.0424 133.608 16.8449 133.608 14.1291C133.608 11.8725 134.219 9.90456 135.441 8.22524C136.677 6.5328 138.332 5.22083 140.409 4.28933C142.497 3.34471 144.83 2.87241 147.406 2.87241C150.008 2.87241 152.32 3.33815 154.344 4.26965C156.368 5.18803 157.971 6.44752 159.154 8.04812C160.35 9.64872 160.98 11.4658 161.046 13.4993H156.315ZM167.427 7.75293V3.42343H197.705V7.75293H185.01V43.7271H180.122V7.75293H167.427ZM202.188 43.7271H197.063L211.887 3.42343H216.933L231.756 43.7271H226.631L214.568 9.7996H214.252L202.188 43.7271ZM204.081 27.9835H224.739V32.313H204.081V27.9835ZM238.044 43.7271V3.42343H251.684C254.838 3.42343 257.426 3.96134 259.451 5.03716C261.474 6.09985 262.972 7.5627 263.944 9.42569C264.917 11.2887 265.403 13.4075 265.403 15.7821C265.403 18.1568 264.917 20.2625 263.944 22.0993C262.972 23.936 261.481 25.3792 259.47 26.4288C257.459 27.4652 254.891 27.9835 251.763 27.9835H240.724V23.5752H251.605C253.76 23.5752 255.495 23.2604 256.809 22.6306C258.136 22.0009 259.096 21.1088 259.687 19.9543C260.291 18.7865 260.593 17.3959 260.593 15.7821C260.593 14.1685 260.291 12.7581 259.687 11.5511C259.083 10.3441 258.117 9.41257 256.789 8.75659C255.462 8.08748 253.707 7.75293 251.527 7.75293H242.932V43.7271H238.044ZM257.045 25.6219L266.98 43.7271H261.304L251.527 25.6219H257.045Z" fill="#231F20"/>
<path d="M0.193359 45.0785L4.28682 37.2187H21.3589L24.4777 32.1199L31.397 45.0785H0.193359Z" fill="#ED1C24"/>
<path d="M39.0563 45.2343L23.7504 19.1084L16.5515 31.5366L7.30078 31.4845L23.6726 2.89289L48.1647 45.1822L39.0563 45.2343Z" fill="#231F20"/>
</g>
</g>
</g>
<defs>
<clipPath id="clip0_185_4625">
<rect width="268" height="46" fill="white"/>
</clipPath>
</defs>
</svg>
