<svg width="18" height="18" viewBox="0 0 18 18" fill="none" xmlns="http://www.w3.org/2000/svg">
<path fill-rule="evenodd" clip-rule="evenodd" d="M15.1526 2.84727C13.5195 1.21219 11.3475 0.311303 9.03354 0.310349C4.26551 0.310349 0.385011 4.19074 0.383102 8.96004C0.382447 10.4847 0.78071 11.9729 1.53774 13.2847L0.310547 17.7672L4.89628 16.5643C6.15983 17.2536 7.58238 17.6168 9.03002 17.6172H9.03367C13.8012 17.6172 17.6821 13.7365 17.6839 8.96697C17.6849 6.65552 16.7859 4.48227 15.1526 2.84727ZM9.03354 16.1563H9.03054C7.74047 16.1557 6.4752 15.8091 5.37114 15.1541L5.10874 14.9982L2.38748 15.7121L3.1138 13.0589L2.94277 12.7869C2.22306 11.6422 1.84299 10.3191 1.84364 8.96056C1.84514 4.99643 5.07058 1.77133 9.03643 1.77133C10.9568 1.77195 12.7621 2.52077 14.1195 3.87979C15.4769 5.23881 16.2241 7.04524 16.2234 8.96643C16.2217 12.9309 12.9965 16.1563 9.03354 16.1563ZM12.9773 10.7714C12.7612 10.6632 11.6985 10.1405 11.5003 10.0683C11.3024 9.99611 11.1581 9.96019 11.0142 10.1765C10.87 10.3928 10.4558 10.8797 10.3297 11.0239C10.2035 11.1681 10.0776 11.1862 9.8614 11.078C9.64524 10.9698 8.94881 10.7415 8.12319 10.0052C7.48069 9.43203 7.04694 8.72424 6.92079 8.50797C6.79485 8.29145 6.9197 8.18575 7.0156 8.06682C7.24958 7.77628 7.48388 7.47165 7.55592 7.3275C7.62804 7.18321 7.59192 7.05697 7.53781 6.94882C7.48388 6.84067 7.05163 5.77678 6.87155 5.34388C6.69598 4.92259 6.51792 4.97947 6.38516 4.97289C6.25923 4.96659 6.11507 4.96531 5.97092 4.96531C5.82684 4.96531 5.59265 5.01932 5.39448 5.23584C5.1964 5.45225 4.63811 5.97508 4.63811 7.03897C4.63811 8.10286 5.4126 9.1306 5.52064 9.27487C5.62865 9.41916 7.04481 11.6023 9.21296 12.5385C9.72865 12.7614 10.1312 12.8942 10.4452 12.9938C10.963 13.1583 11.4341 13.1351 11.8066 13.0795C12.2219 13.0174 13.0853 12.5566 13.2655 12.0517C13.4456 11.5468 13.4456 11.1141 13.3915 11.0239C13.3376 10.9337 13.1934 10.8797 12.9773 10.7714Z" fill="white"/>
</svg>
